<svg width="184" height="85" viewBox="0 0 184 85" fill="none" xmlns="http://www.w3.org/2000/svg">
<path d="M87.44 11.344V11.984C86.7147 12.0053 86.16 12.112 85.776 12.304C85.4133 12.496 85.168 12.8053 85.04 13.232C84.912 13.6587 84.848 14.2667 84.848 15.056V34.16C84.72 34.16 84.592 34.16 84.464 34.16C84.3573 34.16 84.24 34.16 84.112 34.16L70.672 13.392V30.288C70.672 31.056 70.736 31.664 70.864 32.112C71.0133 32.5387 71.2907 32.848 71.696 33.04C72.1227 33.2107 72.752 33.3173 73.584 33.36V34C73.2 33.9573 72.6987 33.936 72.08 33.936C71.4613 33.9147 70.8747 33.904 70.32 33.904C69.7867 33.904 69.2427 33.9147 68.688 33.936C68.1547 33.936 67.7067 33.9573 67.344 34V33.36C68.0693 33.3173 68.6133 33.2107 68.976 33.04C69.36 32.848 69.616 32.5387 69.744 32.112C69.872 31.664 69.936 31.056 69.936 30.288V14.736C69.936 13.9467 69.872 13.3707 69.744 13.008C69.616 12.624 69.36 12.368 68.976 12.24C68.6133 12.0907 68.0693 12.0053 67.344 11.984V11.344C67.7067 11.3653 68.1547 11.3867 68.688 11.408C69.2427 11.4293 69.7867 11.44 70.32 11.44C70.7893 11.44 71.2373 11.4293 71.664 11.408C72.0907 11.3867 72.4747 11.3653 72.816 11.344L84.112 28.752V15.056C84.112 14.2667 84.0373 13.6587 83.888 13.232C83.76 12.8053 83.4827 12.496 83.056 12.304C82.6507 12.112 82.032 12.0053 81.2 11.984V11.344C81.584 11.3653 82.0853 11.3867 82.704 11.408C83.344 11.4293 83.9307 11.44 84.464 11.44C85.0187 11.44 85.5627 11.4293 86.096 11.408C86.6507 11.3867 87.0987 11.3653 87.44 11.344ZM115.122 11.344V11.984C114.396 12.0053 113.842 12.0907 113.458 12.24C113.095 12.368 112.85 12.624 112.722 13.008C112.594 13.3707 112.53 13.9467 112.53 14.736V30.608C112.53 31.376 112.594 31.952 112.722 32.336C112.85 32.72 113.095 32.976 113.458 33.104C113.842 33.232 114.396 33.3173 115.122 33.36V34C114.631 33.9573 114.012 33.936 113.266 33.936C112.54 33.9147 111.804 33.904 111.058 33.904C110.226 33.904 109.447 33.9147 108.722 33.936C107.996 33.936 107.41 33.9573 106.962 34V33.36C107.687 33.3173 108.231 33.232 108.594 33.104C108.978 32.976 109.234 32.72 109.362 32.336C109.49 31.952 109.554 31.376 109.554 30.608V13.008L109.682 13.104L101.842 34.16H101.33L93.2658 13.392V30.288C93.2658 31.056 93.3298 31.664 93.4578 32.112C93.6071 32.5387 93.8844 32.848 94.2898 33.04C94.7164 33.2107 95.3458 33.3173 96.1778 33.36V34C95.7938 33.9573 95.2924 33.936 94.6738 33.936C94.0551 33.9147 93.4684 33.904 92.9138 33.904C92.3804 33.904 91.8364 33.9147 91.2818 33.936C90.7484 33.936 90.3004 33.9573 89.9378 34V33.36C90.6631 33.3173 91.2071 33.2107 91.5698 33.04C91.9538 32.848 92.2098 32.5387 92.3378 32.112C92.4658 31.664 92.5298 31.056 92.5298 30.288V14.736C92.5298 13.9467 92.4658 13.3707 92.3378 13.008C92.2098 12.624 91.9538 12.368 91.5698 12.24C91.2071 12.0907 90.6631 12.0053 89.9378 11.984V11.344C90.3004 11.3653 90.7484 11.3867 91.2818 11.408C91.8364 11.4293 92.3804 11.44 92.9138 11.44C93.3831 11.44 93.8631 11.4293 94.3538 11.408C94.8658 11.3867 95.2924 11.3653 95.6338 11.344L102.898 30.48L102.354 30.736L109.554 11.44C109.81 11.44 110.055 11.44 110.29 11.44C110.546 11.44 110.802 11.44 111.058 11.44C111.804 11.44 112.54 11.4293 113.266 11.408C114.012 11.3867 114.631 11.3653 115.122 11.344Z" fill="black"/>
<path d="M1.344 54.344C1.792 54.3653 2.37867 54.3867 3.104 54.408C3.82933 54.4293 4.544 54.44 5.248 54.44C6.25067 54.44 7.21067 54.4293 8.128 54.408C9.04533 54.3867 9.696 54.376 10.08 54.376C12.6613 54.376 14.592 54.9627 15.872 56.136C17.152 57.3093 17.792 58.824 17.792 60.68C17.792 61.448 17.664 62.2587 17.408 63.112C17.152 63.944 16.704 64.7227 16.064 65.448C15.4453 66.152 14.592 66.728 13.504 67.176C12.416 67.624 11.04 67.848 9.376 67.848H6.304V67.208H9.056C10.5707 67.208 11.7227 66.92 12.512 66.344C13.3227 65.768 13.8667 65.0107 14.144 64.072C14.4427 63.1333 14.592 62.12 14.592 61.032C14.592 59.0053 14.1867 57.4907 13.376 56.488C12.5867 55.4853 11.2213 54.984 9.28 54.984C8.29867 54.984 7.65867 55.1653 7.36 55.528C7.06133 55.8907 6.912 56.6267 6.912 57.736V73.608C6.912 74.376 6.98667 74.952 7.136 75.336C7.30667 75.72 7.62667 75.976 8.096 76.104C8.56533 76.232 9.248 76.3173 10.144 76.36V77C9.58933 76.9573 8.88533 76.936 8.032 76.936C7.17867 76.9147 6.31467 76.904 5.44 76.904C4.608 76.904 3.82933 76.9147 3.104 76.936C2.37867 76.936 1.792 76.9573 1.344 77V76.36C2.06933 76.3173 2.61333 76.232 2.976 76.104C3.36 75.976 3.616 75.72 3.744 75.336C3.872 74.952 3.936 74.376 3.936 73.608V57.736C3.936 56.9467 3.872 56.3707 3.744 56.008C3.616 55.624 3.36 55.368 2.976 55.24C2.61333 55.0907 2.06933 55.0053 1.344 54.984V54.344ZM24.3895 51.944V63.912C24.9442 62.4613 25.7122 61.4587 26.6935 60.904C27.6962 60.3493 28.7415 60.072 29.8295 60.072C30.6402 60.072 31.3122 60.1787 31.8455 60.392C32.4002 60.6053 32.8588 60.904 33.2215 61.288C33.6268 61.7147 33.9148 62.248 34.0855 62.888C34.2562 63.528 34.3415 64.392 34.3415 65.48V74.024C34.3415 74.92 34.5228 75.528 34.8855 75.848C35.2695 76.168 35.8988 76.328 36.7735 76.328V77C36.4108 76.9787 35.8562 76.9573 35.1095 76.936C34.3628 76.8933 33.6375 76.872 32.9335 76.872C32.2295 76.872 31.5362 76.8933 30.8535 76.936C30.1922 76.9573 29.6908 76.9787 29.3495 77V76.328C30.1175 76.328 30.6615 76.168 30.9815 75.848C31.3015 75.528 31.4615 74.92 31.4615 74.024V64.776C31.4615 64.1147 31.4082 63.5067 31.3015 62.952C31.1948 62.3973 30.9495 61.9493 30.5655 61.608C30.2028 61.2667 29.6375 61.096 28.8695 61.096C27.9948 61.096 27.2162 61.3413 26.5335 61.832C25.8722 62.3227 25.3495 63.0053 24.9655 63.88C24.5815 64.7547 24.3895 65.7573 24.3895 66.888V74.024C24.3895 74.92 24.5495 75.528 24.8695 75.848C25.1895 76.168 25.7335 76.328 26.5015 76.328V77C26.1602 76.9787 25.6482 76.9573 24.9655 76.936C24.3042 76.8933 23.6215 76.872 22.9175 76.872C22.2135 76.872 21.4882 76.8933 20.7415 76.936C19.9948 76.9573 19.4402 76.9787 19.0775 77V76.328C19.9522 76.328 20.5708 76.168 20.9335 75.848C21.3175 75.528 21.5095 74.92 21.5095 74.024V55.784C21.5095 54.824 21.3388 54.12 20.9975 53.672C20.6562 53.2027 20.0162 52.968 19.0775 52.968V52.296C19.7602 52.36 20.4215 52.392 21.0615 52.392C21.6802 52.392 22.2668 52.36 22.8215 52.296C23.3975 52.2107 23.9202 52.0933 24.3895 51.944ZM46.018 60.072C47.3833 60.072 48.61 60.3707 49.698 60.968C50.786 61.5653 51.65 62.504 52.29 63.784C52.9513 65.064 53.282 66.728 53.282 68.776C53.282 70.824 52.9513 72.488 52.29 73.768C51.65 75.0267 50.786 75.9547 49.698 76.552C48.61 77.1493 47.3833 77.448 46.018 77.448C44.674 77.448 43.4473 77.1493 42.338 76.552C41.25 75.9547 40.3753 75.0267 39.714 73.768C39.074 72.488 38.754 70.824 38.754 68.776C38.754 66.728 39.074 65.064 39.714 63.784C40.3753 62.504 41.25 61.5653 42.338 60.968C43.4473 60.3707 44.674 60.072 46.018 60.072ZM46.018 60.712C44.802 60.712 43.7993 61.3413 43.01 62.6C42.242 63.8587 41.858 65.9173 41.858 68.776C41.858 71.6347 42.242 73.6933 43.01 74.952C43.7993 76.1893 44.802 76.808 46.018 76.808C47.234 76.808 48.226 76.1893 48.994 74.952C49.7833 73.6933 50.178 71.6347 50.178 68.776C50.178 65.9173 49.7833 63.8587 48.994 62.6C48.226 61.3413 47.234 60.712 46.018 60.712ZM60.8613 55.208V60.552H65.5973V61.192H60.8613V73.576C60.8613 74.5787 61.0426 75.2827 61.4053 75.688C61.7679 76.0933 62.2693 76.296 62.9093 76.296C63.5493 76.296 64.1039 76.04 64.5733 75.528C65.0426 74.9947 65.4479 74.1093 65.7893 72.872L66.4293 73.032C66.2159 74.2693 65.7893 75.3147 65.1493 76.168C64.5306 77.0213 63.5706 77.448 62.2693 77.448C61.5439 77.448 60.9466 77.352 60.4773 77.16C60.0079 76.9893 59.5919 76.7333 59.2293 76.392C58.7599 75.9013 58.4293 75.3147 58.2373 74.632C58.0666 73.9493 57.9813 73.0427 57.9813 71.912V61.192H54.9093V60.552H57.9813V55.656C58.5146 55.6347 59.0266 55.592 59.5173 55.528C60.0079 55.464 60.4559 55.3573 60.8613 55.208ZM74.8618 60.072C76.2271 60.072 77.4538 60.3707 78.5418 60.968C79.6298 61.5653 80.4938 62.504 81.1338 63.784C81.7951 65.064 82.1258 66.728 82.1258 68.776C82.1258 70.824 81.7951 72.488 81.1338 73.768C80.4938 75.0267 79.6298 75.9547 78.5418 76.552C77.4538 77.1493 76.2271 77.448 74.8618 77.448C73.5178 77.448 72.2911 77.1493 71.1818 76.552C70.0938 75.9547 69.2191 75.0267 68.5578 73.768C67.9178 72.488 67.5978 70.824 67.5978 68.776C67.5978 66.728 67.9178 65.064 68.5578 63.784C69.2191 62.504 70.0938 61.5653 71.1818 60.968C72.2911 60.3707 73.5178 60.072 74.8618 60.072ZM74.8618 60.712C73.6458 60.712 72.6431 61.3413 71.8538 62.6C71.0858 63.8587 70.7018 65.9173 70.7018 68.776C70.7018 71.6347 71.0858 73.6933 71.8538 74.952C72.6431 76.1893 73.6458 76.808 74.8618 76.808C76.0778 76.808 77.0698 76.1893 77.8378 74.952C78.6271 73.6933 79.0218 71.6347 79.0218 68.776C79.0218 65.9173 78.6271 63.8587 77.8378 62.6C77.0698 61.3413 76.0778 60.712 74.8618 60.712ZM90.441 83.016C89.3103 83.016 88.2437 82.8987 87.241 82.664C86.2383 82.4293 85.4277 82.056 84.809 81.544C84.2117 81.0533 83.913 80.424 83.913 79.656C83.913 78.9093 84.2117 78.2693 84.809 77.736C85.4063 77.2027 86.217 76.7973 87.241 76.52L87.433 77.032C86.9637 77.1813 86.5903 77.48 86.313 77.928C86.0357 78.376 85.897 78.8773 85.897 79.432C85.897 80.4133 86.345 81.16 87.241 81.672C88.1583 82.2053 89.3423 82.472 90.793 82.472C91.753 82.472 92.6917 82.344 93.609 82.088C94.5263 81.8533 95.2837 81.448 95.881 80.872C96.4783 80.296 96.777 79.5387 96.777 78.6C96.777 77.896 96.521 77.32 96.009 76.872C95.5183 76.4027 94.537 76.168 93.065 76.168H90.697C90.0143 76.168 89.353 76.1147 88.713 76.008C88.073 75.9013 87.5503 75.6773 87.145 75.336C86.7397 74.9947 86.537 74.472 86.537 73.768C86.537 73.0427 86.8357 72.3493 87.433 71.688C88.0303 71.0053 89.129 70.312 90.729 69.608L91.113 69.896C90.3877 70.28 89.7583 70.6747 89.225 71.08C88.6917 71.464 88.425 71.9227 88.425 72.456C88.425 73.1387 88.937 73.48 89.961 73.48H93.961C94.857 73.48 95.6783 73.608 96.425 73.864C97.193 74.12 97.8117 74.5253 98.281 75.08C98.7503 75.6347 98.985 76.36 98.985 77.256C98.985 78.2587 98.665 79.1973 98.025 80.072C97.385 80.9467 96.425 81.6507 95.145 82.184C93.8863 82.7387 92.3183 83.016 90.441 83.016ZM90.601 70.184C89.5557 70.184 88.6063 70.0133 87.753 69.672C86.8997 69.3093 86.2277 68.7547 85.737 68.008C85.2463 67.2613 85.001 66.3013 85.001 65.128C85.001 63.9547 85.2463 62.9947 85.737 62.248C86.2277 61.5013 86.8997 60.9573 87.753 60.616C88.6063 60.2533 89.5557 60.072 90.601 60.072C91.6677 60.072 92.617 60.2533 93.449 60.616C94.3023 60.9573 94.9743 61.5013 95.465 62.248C95.9557 62.9947 96.201 63.9547 96.201 65.128C96.201 66.3013 95.9557 67.2613 95.465 68.008C94.9743 68.7547 94.3023 69.3093 93.449 69.672C92.617 70.0133 91.6677 70.184 90.601 70.184ZM90.601 69.608C91.4117 69.608 92.041 69.288 92.489 68.648C92.9583 68.008 93.193 66.8347 93.193 65.128C93.193 63.4213 92.9583 62.248 92.489 61.608C92.041 60.968 91.4117 60.648 90.601 60.648C89.8117 60.648 89.1823 60.968 88.713 61.608C88.2437 62.248 88.009 63.4213 88.009 65.128C88.009 66.8347 88.2437 68.008 88.713 68.648C89.1823 69.288 89.8117 69.608 90.601 69.608ZM95.209 62.728L94.633 62.504C94.9317 61.7787 95.4437 61.1387 96.169 60.584C96.8943 60.0293 97.6517 59.752 98.441 59.752C98.9957 59.752 99.4437 59.912 99.785 60.232C100.126 60.5307 100.297 60.9893 100.297 61.608C100.297 62.2693 100.116 62.7387 99.753 63.016C99.4117 63.272 99.0597 63.4 98.697 63.4C98.377 63.4 98.0783 63.2933 97.801 63.08C97.5237 62.8453 97.3637 62.4827 97.321 61.992C97.2783 61.5013 97.4277 60.872 97.769 60.104L98.185 60.2C97.289 60.5413 96.649 60.904 96.265 61.288C95.881 61.6507 95.529 62.1307 95.209 62.728ZM111.411 60.072C111.987 60.072 112.489 60.1893 112.915 60.424C113.363 60.6587 113.705 60.968 113.939 61.352C114.195 61.7147 114.323 62.1307 114.323 62.6C114.323 63.1333 114.153 63.6027 113.811 64.008C113.491 64.4133 113.054 64.616 112.499 64.616C112.051 64.616 111.657 64.4773 111.315 64.2C110.974 63.9013 110.803 63.4853 110.803 62.952C110.803 62.5467 110.91 62.2053 111.123 61.928C111.358 61.6293 111.614 61.3947 111.891 61.224C111.742 61.0107 111.518 60.904 111.219 60.904C110.558 60.904 109.95 61.1067 109.395 61.512C108.841 61.896 108.371 62.3973 107.987 63.016C107.603 63.6347 107.305 64.296 107.091 65C106.878 65.6827 106.771 66.3227 106.771 66.92V73.704C106.771 74.7493 107.07 75.4533 107.667 75.816C108.286 76.1573 109.118 76.328 110.163 76.328V77C109.673 76.9787 108.979 76.9573 108.083 76.936C107.187 76.8933 106.238 76.872 105.235 76.872C104.51 76.872 103.785 76.8933 103.059 76.936C102.355 76.9573 101.822 76.9787 101.459 77V76.328C102.334 76.328 102.953 76.168 103.315 75.848C103.699 75.528 103.891 74.92 103.891 74.024V64.008C103.891 63.048 103.721 62.344 103.379 61.896C103.038 61.4267 102.398 61.192 101.459 61.192V60.52C102.142 60.584 102.803 60.616 103.443 60.616C104.062 60.616 104.649 60.584 105.203 60.52C105.779 60.4347 106.302 60.3173 106.771 60.168V64.168C107.006 63.5493 107.337 62.9307 107.763 62.312C108.211 61.672 108.745 61.1387 109.363 60.712C109.982 60.2853 110.665 60.072 111.411 60.072ZM120.253 77.224C119.379 77.224 118.621 77.064 117.981 76.744C117.341 76.4027 116.851 75.9333 116.509 75.336C116.189 74.7387 116.029 74.0453 116.029 73.256C116.029 72.3173 116.243 71.5493 116.669 70.952C117.117 70.3547 117.683 69.8747 118.365 69.512C119.048 69.1493 119.763 68.8507 120.509 68.616C121.277 68.36 122.003 68.1253 122.685 67.912C123.368 67.6773 123.923 67.4107 124.349 67.112C124.797 66.8133 125.021 66.4187 125.021 65.928V63.944C125.021 63.048 124.883 62.3653 124.605 61.896C124.349 61.4267 123.997 61.1173 123.549 60.968C123.101 60.7973 122.6 60.712 122.045 60.712C121.512 60.712 120.936 60.7867 120.317 60.936C119.72 61.0853 119.24 61.3947 118.877 61.864C119.283 61.9493 119.635 62.1627 119.933 62.504C120.232 62.8453 120.381 63.2827 120.381 63.816C120.381 64.3493 120.211 64.776 119.869 65.096C119.528 65.3947 119.091 65.544 118.557 65.544C117.939 65.544 117.48 65.352 117.181 64.968C116.904 64.5627 116.765 64.1147 116.765 63.624C116.765 63.0693 116.904 62.6213 117.181 62.28C117.459 61.9387 117.811 61.6187 118.237 61.32C118.728 60.9787 119.357 60.6907 120.125 60.456C120.915 60.2 121.8 60.072 122.781 60.072C123.656 60.072 124.403 60.1787 125.021 60.392C125.64 60.584 126.152 60.872 126.557 61.256C127.112 61.768 127.475 62.3973 127.645 63.144C127.816 63.8693 127.901 64.744 127.901 65.768V74.664C127.901 75.1973 127.976 75.5813 128.125 75.816C128.296 76.0507 128.552 76.168 128.893 76.168C129.128 76.168 129.352 76.1147 129.565 76.008C129.779 75.9013 130.035 75.7307 130.333 75.496L130.685 76.04C130.237 76.3813 129.811 76.6693 129.405 76.904C129 77.1173 128.456 77.224 127.773 77.224C127.155 77.224 126.643 77.1173 126.237 76.904C125.832 76.6907 125.523 76.3813 125.309 75.976C125.117 75.5493 125.021 75.016 125.021 74.376C124.445 75.336 123.752 76.0507 122.941 76.52C122.152 76.9893 121.256 77.224 120.253 77.224ZM121.405 75.944C122.109 75.944 122.76 75.7413 123.357 75.336C123.976 74.9307 124.531 74.3227 125.021 73.512V67.24C124.765 67.6027 124.392 67.912 123.901 68.168C123.411 68.4027 122.877 68.648 122.301 68.904C121.725 69.1387 121.171 69.4267 120.637 69.768C120.125 70.088 119.699 70.5147 119.357 71.048C119.016 71.5813 118.845 72.2747 118.845 73.128C118.845 73.9813 119.069 74.664 119.517 75.176C119.987 75.688 120.616 75.944 121.405 75.944ZM136.735 60.168V79.816C136.735 80.7333 137.001 81.3413 137.535 81.64C138.089 81.96 138.847 82.12 139.807 82.12V82.792C139.337 82.7707 138.687 82.7387 137.855 82.696C137.023 82.6747 136.137 82.664 135.199 82.664C134.537 82.664 133.876 82.6747 133.215 82.696C132.575 82.7387 132.084 82.7707 131.743 82.792V82.12C132.511 82.12 133.055 81.9813 133.375 81.704C133.695 81.4267 133.855 80.904 133.855 80.136V64.008C133.855 63.048 133.684 62.344 133.343 61.896C133.001 61.4267 132.361 61.192 131.423 61.192V60.52C132.105 60.584 132.767 60.616 133.407 60.616C134.025 60.616 134.612 60.584 135.167 60.52C135.743 60.4347 136.265 60.3173 136.735 60.168ZM141.855 60.072C142.985 60.072 143.999 60.3813 144.895 61C145.791 61.5973 146.495 62.4827 147.007 63.656C147.54 64.8293 147.807 66.28 147.807 68.008C147.807 69.16 147.668 70.3013 147.391 71.432C147.113 72.5413 146.676 73.5547 146.079 74.472C145.503 75.368 144.745 76.0933 143.807 76.648C142.889 77.1813 141.78 77.448 140.479 77.448C139.476 77.448 138.601 77.2133 137.855 76.744C137.129 76.2747 136.639 75.7093 136.383 75.048L136.703 74.6C137.001 75.1973 137.428 75.6987 137.983 76.104C138.559 76.5093 139.273 76.712 140.127 76.712C141.321 76.712 142.249 76.3387 142.911 75.592C143.572 74.8453 144.031 73.8533 144.287 72.616C144.564 71.3573 144.703 69.9707 144.703 68.456C144.703 66.7493 144.564 65.352 144.287 64.264C144.009 63.176 143.593 62.3653 143.039 61.832C142.484 61.2987 141.801 61.032 140.991 61.032C139.945 61.032 138.996 61.4693 138.143 62.344C137.289 63.1973 136.745 64.4987 136.511 66.248L136.127 65.8C136.361 63.9867 137.001 62.5787 138.047 61.576C139.113 60.5733 140.383 60.072 141.855 60.072ZM155.265 51.944V63.912C155.819 62.4613 156.587 61.4587 157.569 60.904C158.571 60.3493 159.617 60.072 160.705 60.072C161.515 60.072 162.187 60.1787 162.721 60.392C163.275 60.6053 163.734 60.904 164.097 61.288C164.502 61.7147 164.79 62.248 164.961 62.888C165.131 63.528 165.217 64.392 165.217 65.48V74.024C165.217 74.92 165.398 75.528 165.76 75.848C166.145 76.168 166.774 76.328 167.649 76.328V77C167.286 76.9787 166.731 76.9573 165.985 76.936C165.238 76.8933 164.513 76.872 163.809 76.872C163.105 76.872 162.411 76.8933 161.729 76.936C161.067 76.9573 160.566 76.9787 160.225 77V76.328C160.993 76.328 161.537 76.168 161.857 75.848C162.177 75.528 162.337 74.92 162.337 74.024V64.776C162.337 64.1147 162.283 63.5067 162.177 62.952C162.07 62.3973 161.825 61.9493 161.441 61.608C161.078 61.2667 160.513 61.096 159.745 61.096C158.87 61.096 158.091 61.3413 157.409 61.832C156.747 62.3227 156.225 63.0053 155.841 63.88C155.457 64.7547 155.265 65.7573 155.265 66.888V74.024C155.265 74.92 155.425 75.528 155.745 75.848C156.065 76.168 156.609 76.328 157.377 76.328V77C157.035 76.9787 156.523 76.9573 155.841 76.936C155.179 76.8933 154.497 76.872 153.793 76.872C153.089 76.872 152.363 76.8933 151.617 76.936C150.87 76.9573 150.315 76.9787 149.953 77V76.328C150.827 76.328 151.446 76.168 151.809 75.848C152.193 75.528 152.385 74.92 152.385 74.024V55.784C152.385 54.824 152.214 54.12 151.873 53.672C151.531 53.2027 150.891 52.968 149.953 52.968V52.296C150.635 52.36 151.297 52.392 151.937 52.392C152.555 52.392 153.142 52.36 153.697 52.296C154.273 52.2107 154.795 52.0933 155.265 51.944ZM183.652 60.52V61.16C183.246 61.2027 182.873 61.384 182.532 61.704C182.19 62.024 181.87 62.5893 181.572 63.4L176.324 77.16H175.78L169.892 62.984C169.486 62.152 169.081 61.6507 168.676 61.48C168.292 61.288 167.972 61.192 167.716 61.192V60.52C168.185 60.584 168.676 60.6373 169.188 60.68C169.7 60.7013 170.254 60.712 170.852 60.712C171.513 60.712 172.206 60.6907 172.932 60.648C173.678 60.6053 174.372 60.5627 175.012 60.52V61.192C174.478 61.192 173.998 61.2347 173.572 61.32C173.166 61.384 172.91 61.608 172.804 61.992C172.697 62.3547 172.825 62.984 173.188 63.88L177.124 73.64L176.932 73.704L180.58 64.168C180.857 63.464 180.964 62.9093 180.9 62.504C180.857 62.0773 180.644 61.7573 180.26 61.544C179.876 61.3307 179.3 61.2027 178.532 61.16V60.52C178.916 60.5413 179.246 60.5627 179.524 60.584C179.801 60.584 180.068 60.5947 180.324 60.616C180.601 60.616 180.9 60.616 181.22 60.616C181.71 60.616 182.148 60.6053 182.532 60.584C182.937 60.5627 183.31 60.5413 183.652 60.52ZM176.324 77.16L175.236 79.944C175.022 80.4773 174.798 80.9253 174.564 81.288C174.35 81.6507 174.116 81.9493 173.86 82.184C173.518 82.504 173.113 82.7173 172.644 82.824C172.174 82.952 171.748 83.016 171.364 83.016C170.958 83.016 170.585 82.9413 170.244 82.792C169.924 82.6427 169.668 82.4187 169.476 82.12C169.284 81.8427 169.188 81.5013 169.188 81.096C169.188 80.584 169.337 80.168 169.636 79.848C169.934 79.5493 170.35 79.4 170.884 79.4C171.332 79.4 171.716 79.528 172.036 79.784C172.356 80.04 172.516 80.4133 172.516 80.904C172.516 81.2667 172.43 81.5653 172.26 81.8C172.089 82.0347 171.886 82.216 171.652 82.344C171.694 82.3653 171.726 82.376 171.748 82.376C171.79 82.376 171.822 82.376 171.844 82.376C172.42 82.376 172.932 82.1733 173.38 81.768C173.828 81.384 174.222 80.7547 174.564 79.88L175.716 76.904L176.324 77.16Z" fill="black"/>
<rect y="42" width="184" height="1" fill="black"/>
</svg>
